<?xml version="1.0" encoding="utf-8"?>
<!-- Generator: Adobe Illustrator 23.0.0, SVG Export Plug-In . SVG Version: 6.00 Build 0)  -->
<svg version="1.1" id="https:_material.io_resources_icons_icon_mode_comment_style_outline"
	 xmlns="http://www.w3.org/2000/svg" xmlns:xlink="http://www.w3.org/1999/xlink" x="0px" y="0px" viewBox="0 0 52.3 52.3"
	 style="enable-background:new 0 0 52.3 52.3;" xml:space="preserve">
<style type="text/css">
	.st0{fill:none;}
	.st1{fill:#FFFFFF;}
</style>
<path id="Path_50" class="st0" d="M0.2,0h52.3v52.3H0.2V0z"/>
<g>
	<path class="st1" d="M37.3,14.4l1.1-0.4l1.1,3.5L38.3,18L37.3,14.4z"/>
	<path class="st1" d="M37.3,14.4l1.1-0.4l1.1,3.5L38.3,18L37.3,14.4z"/>
	<path class="st1" d="M35.5,18.6l1.2-0.3l1.3,3.2l-1.2,0.3L35.5,18.6z"/>
	<path class="st1" d="M35.5,18.6l1.2-0.3l1.3,3.2l-1.2,0.3L35.5,18.6z"/>
	<path class="st1" d="M16.6,20.2c-0.1,0.9,0.1,1.7,0.7,2.4l0.8,1V33h1.1v-8.5l0.8,0.5c0.2,0.1,0.4,0.1,0.6,0l1.4-0.9l1.4,0.9
		c0.2,0.1,0.4,0.1,0.6,0l1.4-0.9l1.4,0.9c0.2,0.1,0.4,0.1,0.6,0l1.4-0.9l1.4,0.9c0.2,0.1,0.4,0.1,0.6,0l1.4-0.9l1.1,0.7V42H20.9v1.1
		h15.8c1.6,0,2.8-1.3,2.8-2.8V23.5c0-0.1,0-0.2-0.1-0.3l3.3-8.6c0.4-1.2,0.3-2.5-0.4-3.5c-0.7-1-1.8-1.6-3-1.6c-1.5,0-2.9,1-3.4,2.4
		L35,14.2l-1-1v-2c0-0.3-0.3-0.6-0.6-0.6h-6.2c-0.3,0-0.6,0.3-0.6,0.6v1c-0.6-0.6-1.6-0.6-2.3-0.1v-0.9c0-0.9-0.7-1.7-1.7-1.7
		c-0.9,0-1.7,0.7-1.7,1.7V12c-0.3-0.3-0.7-0.4-1.1-0.4c-0.5,0-0.9,0.2-1.2,0.5c-0.7,0.7-0.7,1.8,0,2.5l0.5,0.5
		c-0.2,0.1-0.4,0.2-0.5,0.4l0,0l0,0c-0.1,0.1-0.2,0.3-0.3,0.5l-0.6-1.2l-1,0.5l1.5,2.7c-0.1,0-0.1,0.1-0.2,0.1c0,0,0,0-0.1,0l-2.2-2
		L14.9,17l2.2,2C16.8,19.4,16.7,19.8,16.6,20.2z M28.5,23l-1.4,0.9L25.8,23c-0.2-0.1-0.4-0.1-0.6,0l-1.4,0.9c0-0.1,0-0.1,0-0.2
		c0-1.2,0.9-2.3,2.1-2.5c1.2-0.2,2.4,0.5,2.8,1.7C28.6,23,28.6,23,28.5,23z M30,23.6L30,23.6c-0.1-1.2-0.7-2.3-1.7-2.9
		c-1-0.6-2.3-0.7-3.4-0.3v-3.7H30V23.6z M38.4,40.3c0,0.9-0.8,1.7-1.7,1.7h-2.3V24.9l1.1-0.8l1.4,0.9c0.2,0.1,0.4,0.1,0.6,0l0.8-0.5
		V40.3z M36.9,12.2c0.4-1,1.3-1.7,2.4-1.7c0.8,0,1.6,0.4,2.1,1.1c0.5,0.7,0.6,1.6,0.3,2.5l-3.5,9.3l-0.8,0.6L35.9,23
		c-0.2-0.1-0.4-0.1-0.6,0l-1.4,0.9l-1.1-0.8L36.9,12.2z M34.5,15.3l-3,7.9l-0.4,0.3v-7.1l2.3-2.2L34.5,15.3z M27.7,11.7h5.1v1.1
		h-5.1V11.7z M27.4,13.9H32l-1.7,1.7h-4.6L27.4,13.9z M19.4,12.9c0.1-0.1,0.3-0.2,0.4-0.2c0.2,0,0.3,0.1,0.4,0.2l0.8,0.8
		c0.2,0.2,0.4,0.2,0.6,0.1c0.2-0.1,0.4-0.3,0.3-0.5v-2.2c0-0.2,0.1-0.4,0.3-0.5c0.2-0.1,0.4-0.1,0.6,0c0.2,0.1,0.3,0.3,0.3,0.5v2.2
		c0,0.2,0.1,0.4,0.4,0.5c0.2,0.1,0.5,0,0.6-0.1l0.8-0.8c0.2-0.2,0.6-0.2,0.9,0c0.2,0.2,0.2,0.6,0,0.9l-1.7,1.7l0,0l-0.3,0.3
		c0,0-0.1,0.1-0.1,0.2c0,0,0,0,0,0.1c0,0,0,0.1,0,0.1c0,0,0,0,0,0v5c-0.1,0.1-0.2,0.3-0.4,0.4l-1.1-2.3c-0.4-0.8-1.1-1.4-2-1.6
		c-0.2-0.1-0.4-0.1-0.6-0.1l-0.1-0.2c-0.1-0.1-0.2-0.2-0.2-0.2c-0.1-0.2-0.2-0.4-0.2-0.6c0-0.1,0.1-0.2,0.2-0.3l0,0l0,0
		c0.2-0.2,0.5-0.2,0.8-0.1c0.2,0.2,0.6,0.1,0.7-0.1c0.2-0.2,0.2-0.5,0-0.7l-1.5-1.5C19.2,13.6,19.2,13.2,19.4,12.9z M17.7,20.4
		c0.1-0.5,0.4-1,0.8-1.3c0.5-0.3,1-0.4,1.5-0.3c0.5,0.1,1,0.5,1.2,1l1.4,3.1c0,0.1-0.1,0.3-0.1,0.4L22.4,23c-0.2-0.1-0.4-0.1-0.6,0
		l-1.4,0.9l-1.3-0.8L19,23l1.5-1.1l-0.7-0.9l-1.5,1.1l-0.1-0.2C17.8,21.5,17.6,20.9,17.7,20.4z"/>
	<path class="st1" d="M16.6,20.2c-0.1,0.9,0.1,1.7,0.7,2.4l0.8,1V33h1.1v-8.5l0.8,0.5c0.2,0.1,0.4,0.1,0.6,0l1.4-0.9l1.4,0.9
		c0.2,0.1,0.4,0.1,0.6,0l1.4-0.9l1.4,0.9c0.2,0.1,0.4,0.1,0.6,0l1.4-0.9l1.4,0.9c0.2,0.1,0.4,0.1,0.6,0l1.4-0.9l1.1,0.7V42H20.9v1.1
		h15.8c1.6,0,2.8-1.3,2.8-2.8V23.5c0-0.1,0-0.2-0.1-0.3l3.3-8.6c0.4-1.2,0.3-2.5-0.4-3.5c-0.7-1-1.8-1.6-3-1.6c-1.5,0-2.9,1-3.4,2.4
		L35,14.2l-1-1v-2c0-0.3-0.3-0.6-0.6-0.6h-6.2c-0.3,0-0.6,0.3-0.6,0.6v1c-0.6-0.6-1.6-0.6-2.3-0.1v-0.9c0-0.9-0.7-1.7-1.7-1.7
		c-0.9,0-1.7,0.7-1.7,1.7V12c-0.3-0.3-0.7-0.4-1.1-0.4c-0.5,0-0.9,0.2-1.2,0.5c-0.7,0.7-0.7,1.8,0,2.5l0.5,0.5
		c-0.2,0.1-0.4,0.2-0.5,0.4l0,0l0,0c-0.1,0.1-0.2,0.3-0.3,0.5l-0.6-1.2l-1,0.5l1.5,2.7c-0.1,0-0.1,0.1-0.2,0.1c0,0,0,0-0.1,0l-2.2-2
		L14.9,17l2.2,2C16.8,19.4,16.7,19.8,16.6,20.2z M28.5,23l-1.4,0.9L25.8,23c-0.2-0.1-0.4-0.1-0.6,0l-1.4,0.9c0-0.1,0-0.1,0-0.2
		c0-1.2,0.9-2.3,2.1-2.5c1.2-0.2,2.4,0.5,2.8,1.7C28.6,23,28.6,23,28.5,23z M30,23.6L30,23.6c-0.1-1.2-0.7-2.3-1.7-2.9
		c-1-0.6-2.3-0.7-3.4-0.3v-3.7H30V23.6z M38.4,40.3c0,0.9-0.8,1.7-1.7,1.7h-2.3V24.9l1.1-0.8l1.4,0.9c0.2,0.1,0.4,0.1,0.6,0l0.8-0.5
		V40.3z M36.9,12.2c0.4-1,1.3-1.7,2.4-1.7c0.8,0,1.6,0.4,2.1,1.1c0.5,0.7,0.6,1.6,0.3,2.5l-3.5,9.3l-0.8,0.6L35.9,23
		c-0.2-0.1-0.4-0.1-0.6,0l-1.4,0.9l-1.1-0.8L36.9,12.2z M34.5,15.3l-3,7.9l-0.4,0.3v-7.1l2.3-2.2L34.5,15.3z M27.7,11.7h5.1v1.1
		h-5.1V11.7z M27.4,13.9H32l-1.7,1.7h-4.6L27.4,13.9z M19.4,12.9c0.1-0.1,0.3-0.2,0.4-0.2c0.2,0,0.3,0.1,0.4,0.2l0.8,0.8
		c0.2,0.2,0.4,0.2,0.6,0.1c0.2-0.1,0.4-0.3,0.3-0.5v-2.2c0-0.2,0.1-0.4,0.3-0.5c0.2-0.1,0.4-0.1,0.6,0c0.2,0.1,0.3,0.3,0.3,0.5v2.2
		c0,0.2,0.1,0.4,0.4,0.5c0.2,0.1,0.5,0,0.6-0.1l0.8-0.8c0.2-0.2,0.6-0.2,0.9,0c0.2,0.2,0.2,0.6,0,0.9l-1.7,1.7l0,0l-0.3,0.3
		c0,0-0.1,0.1-0.1,0.2c0,0,0,0,0,0.1c0,0,0,0.1,0,0.1c0,0,0,0,0,0v5c-0.1,0.1-0.2,0.3-0.4,0.4l-1.1-2.3c-0.4-0.8-1.1-1.4-2-1.6
		c-0.2-0.1-0.4-0.1-0.6-0.1l-0.1-0.2c-0.1-0.1-0.2-0.2-0.2-0.2c-0.1-0.2-0.2-0.4-0.2-0.6c0-0.1,0.1-0.2,0.2-0.3l0,0l0,0
		c0.2-0.2,0.5-0.2,0.8-0.1c0.2,0.2,0.6,0.1,0.7-0.1c0.2-0.2,0.2-0.5,0-0.7l-1.5-1.5C19.2,13.6,19.2,13.2,19.4,12.9z M17.7,20.4
		c0.1-0.5,0.4-1,0.8-1.3c0.5-0.3,1-0.4,1.5-0.3c0.5,0.1,1,0.5,1.2,1l1.4,3.1c0,0.1-0.1,0.3-0.1,0.4L22.4,23c-0.2-0.1-0.4-0.1-0.6,0
		l-1.4,0.9l-1.3-0.8L19,23l1.5-1.1l-0.7-0.9l-1.5,1.1l-0.1-0.2C17.8,21.5,17.6,20.9,17.7,20.4z"/>
	<path class="st1" d="M12.6,41.7c0.4,0.9,1.3,1.4,2.3,1.4c0.4,0,0.8-0.1,1.2-0.3l0.5-0.2l0.5,0.2c0.4,0.2,0.8,0.3,1.2,0.3
		c1,0,1.9-0.5,2.3-1.4l0.2-0.4c0.7-1.3,1-2.8,1-4.3c0-1.6-1.3-3-3-3c-0.6,0-1.1,0.2-1.6,0.5v-0.5c0-1.3-1-2.3-2.3-2.3v1.1
		c0.6,0,1.1,0.5,1.1,1.1v0.5c-0.5-0.3-1-0.5-1.6-0.5c-1.7,0-3,1.3-3,3c0,1.5,0.4,3,1,4.3L12.6,41.7z M14.4,35.2c0.5,0,1,0.2,1.3,0.5
		l0.4,0.4c0.2,0.2,0.6,0.2,0.8,0l0.4-0.4c0.5-0.5,1.3-0.7,2-0.4c0.7,0.3,1.1,1,1.1,1.7c0,1.3-0.3,2.6-0.9,3.8l-0.2,0.4
		c-0.2,0.5-0.7,0.8-1.3,0.8c-0.2,0-0.4-0.1-0.6-0.2l-0.7-0.4c-0.2-0.1-0.4-0.1-0.5,0l-0.7,0.4C15.3,42,15.1,42,14.9,42
		c-0.5,0-1-0.3-1.3-0.8l-0.2-0.4c-0.6-1.2-0.9-2.5-0.9-3.8C12.5,36,13.3,35.2,14.4,35.2L14.4,35.2z"/>
	<path class="st1" d="M12.6,41.7c0.4,0.9,1.3,1.4,2.3,1.4c0.4,0,0.8-0.1,1.2-0.3l0.5-0.2l0.5,0.2c0.4,0.2,0.8,0.3,1.2,0.3
		c1,0,1.9-0.5,2.3-1.4l0.2-0.4c0.7-1.3,1-2.8,1-4.3c0-1.6-1.3-3-3-3c-0.6,0-1.1,0.2-1.6,0.5v-0.5c0-1.3-1-2.3-2.3-2.3v1.1
		c0.6,0,1.1,0.5,1.1,1.1v0.5c-0.5-0.3-1-0.5-1.6-0.5c-1.7,0-3,1.3-3,3c0,1.5,0.4,3,1,4.3L12.6,41.7z M14.4,35.2c0.5,0,1,0.2,1.3,0.5
		l0.4,0.4c0.2,0.2,0.6,0.2,0.8,0l0.4-0.4c0.5-0.5,1.3-0.7,2-0.4c0.7,0.3,1.1,1,1.1,1.7c0,1.3-0.3,2.6-0.9,3.8l-0.2,0.4
		c-0.2,0.5-0.7,0.8-1.3,0.8c-0.2,0-0.4-0.1-0.6-0.2l-0.7-0.4c-0.2-0.1-0.4-0.1-0.5,0l-0.7,0.4C15.3,42,15.1,42,14.9,42
		c-0.5,0-1-0.3-1.3-0.8l-0.2-0.4c-0.6-1.2-0.9-2.5-0.9-3.8C12.5,36,13.3,35.2,14.4,35.2L14.4,35.2z"/>
</g>
</svg>
