<?xml version="1.0" encoding="utf-8"?>
<!-- Generator: Adobe Illustrator 23.0.0, SVG Export Plug-In . SVG Version: 6.00 Build 0)  -->
<svg version="1.1" id="https:_material.io_resources_icons_icon_mode_comment_style_outline"
	 xmlns="http://www.w3.org/2000/svg" xmlns:xlink="http://www.w3.org/1999/xlink" x="0px" y="0px" viewBox="0 0 52.3 52.3"
	 style="enable-background:new 0 0 52.3 52.3;" xml:space="preserve">
<style type="text/css">
	.st0{fill:none;}
	.st1{fill:#FFFFFF;}
</style>
<path id="Path_50" class="st0" d="M0.5,0.1h52.3v52.3H0.5V0.1z"/>
<g>
	<path class="st1" d="M44.5,42.1l-1.3-25.6c0-1-0.8-1.7-1.8-1.7h-3.9v-1.5c0-2.7-2.2-4.8-4.8-4.8s-4.8,2.2-4.8,4.8v1.5H24
		c-1,0-1.8,0.8-1.8,1.7l-0.3,5.9c-0.4-0.1-0.8-0.2-1.2-0.2c-2.7,0-4.8,2.2-4.8,4.8v1.5h-5.4c-1,0-1.8,0.8-1.8,1.8v11.8
		c0,1,0.8,1.8,1.8,1.8h2.5c0.3,0,0.5-0.2,0.5-0.5c0-0.3-0.2-0.5-0.5-0.5h-2.5c0,0-0.1,0-0.1,0l1.9-1.9c0.2-0.2,0.2-0.5,0-0.7
		c-0.2-0.2-0.5-0.2-0.7,0l-1.8,1.8V30.4c0-0.4,0.3-0.7,0.7-0.7h5.4v1.5c0,0.3,0.2,0.5,0.5,0.5c0.3,0,0.5-0.2,0.5-0.5v-1.5h7.5v1.5
		c0,0.3,0.2,0.5,0.5,0.5s0.5-0.2,0.5-0.5v-1.5h5.4c0.4,0,0.7,0.3,0.7,0.7v11.7l-1.8-1.8c-0.2-0.2-0.5-0.2-0.7,0
		c-0.2,0.2-0.2,0.5,0,0.7l1.9,1.9c0,0-0.1,0-0.1,0H15.4c-0.3,0-0.5,0.2-0.5,0.5c0,0.3,0.2,0.5,0.5,0.5l27.3,0
		C43.8,44,44.6,43.2,44.5,42.1L44.5,42.1z M28.9,13.3c0-2.1,1.7-3.8,3.8-3.8s3.8,1.7,3.8,3.8v1.5h-7.5L28.9,13.3z M22.6,28.6
		l0.1-2.8c0-0.3-0.2-0.5-0.5-0.6c-0.3,0-0.5,0.2-0.6,0.5l-0.1,2.8h-4.7v-1.5c0-2.1,1.7-3.8,3.8-3.8s3.8,1.7,3.8,3.8v1.5H22.6z
		 M32.5,43c0.1-0.2,0.2-0.5,0.2-0.7V30.4c0-1-0.8-1.8-1.8-1.8h-5.4v-1.5c0-1.9-1-3.5-2.6-4.3l0.3-6.3c0-0.4,0.3-0.7,0.7-0.7h3.9v1.5
		c0,0.3,0.2,0.5,0.5,0.5c0.3,0,0.5-0.2,0.5-0.5v-1.5h7.5v1.5c0,0.3,0.2,0.5,0.5,0.5s0.5-0.2,0.5-0.5v-1.5h3.9c0.4,0,0.7,0.3,0.7,0.7
		l1.3,25.6l-1.8-1.8c-0.2-0.2-0.5-0.2-0.7,0c-0.2,0.2-0.2,0.5,0,0.7l1.9,1.9c0,0-0.1,0-0.1,0L32.5,43L32.5,43z"/>
	<path class="st1" d="M24.3,37c0-2-1.6-3.6-3.6-3.6S17.1,35,17.1,37s1.6,3.6,3.6,3.6S24.3,38.9,24.3,37z M18.2,37
		c0-1.4,1.1-2.5,2.5-2.5s2.5,1.1,2.5,2.5s-1.1,2.5-2.5,2.5C19.3,39.5,18.2,38.4,18.2,37z"/>
	<path class="st1" d="M37,21.6h-8.6c-0.3,0-0.5,0.2-0.5,0.5v2c0,0.3,0.2,0.5,0.5,0.5h5c0.3,0,0.5-0.2,0.5-0.5c0-0.3-0.2-0.5-0.5-0.5
		h-4.5v-0.9h7.5v0.9h-0.6c-0.3,0-0.5,0.2-0.5,0.5c0,0.3,0.2,0.5,0.5,0.5H37c0.3,0,0.5-0.2,0.5-0.5v-2C37.5,21.8,37.3,21.6,37,21.6z"
		/>
</g>
</svg>
